<svg id="Layer_3_Image" data-name="Layer 3 Image" xmlns="http://www.w3.org/2000/svg" viewBox="0 0 1726 1224.06"><defs><style>.cls-1{fill:#393939;}</style></defs><title>Logo</title><path class="cls-1" d="M455,221l-14.33,57.35C537,377,1118,888,1854,624l24-34c-61.08,17.25-212.6,52.77-283,62-125.54,16.46-233,5-233,5s115,9,446.18-287L1840,321s-112.79,104.34-280,204c-151,90-266,117-266,117s-125.9,13.6-435.9-131.4C638.51,407.89,455,221,455,221Z" transform="translate(-152 -221)"/><path class="cls-1" d="M152,482c93,46,288.67,49,509-38l34.51,24.74C561.51,521.74,297,581,189,538Z" transform="translate(-152 -221)"/><path class="cls-1" d="M301.63,614.1c339,136.49,570,268.49,1372.43,205.49l-117,36c-303,30-778.46,27-1198.44-180Z" transform="translate(-152 -221)"/><path class="cls-1" d="M889.6,1445.06c-15-136.49-8.11-488.66-301.79-677.06l93.3,24.59C929,975,889.6,1445.06,889.6,1445.06Z" transform="translate(-152 -221)"/><path class="cls-1" d="M554.23,1201.88C539.81,1207.61,550,1230,570,1231s23.12-11.34,23.31-32.34-28.53-40-46.89-34.67C507.33,1175.33,511,1277,580,1282s97-85,93-141-24-149,11-152,37.91,21.36,37.33,28.33c-1.33,16-27,20.33-30,9.33s12-6.33,12-15.33S686,1001,680,1008s-14.67,24,11.33,38,46.36-13,48.52-24,2-44.67-39.85-52c-64.69-11.33-57.62,71.76-52.62,140.76s3,147.39-57.25,154.1C532,1271.33,531.46,1186,550,1180.67c20.26-5.83,40,26,28,31.33C556.33,1221.67,564,1198,554.23,1201.88Z" transform="translate(-152 -221)"/><path class="cls-1" d="M1031.33,1024c0,4.67,28-12,0-22.67s-12.44,30,12.44,44,27.56-2,34.22-16.67-4-52-54-54.67-64,44-43.91,74.76c28.87,44.21,83.91,39.9,82.58,107.9-1,49.69-73.15,67.33-93.91,55.33s-29.43-47.33-14.76-58,34.35-2,33.84,4-14.51.67-17.18,9.33.35,20.67,17.18,17.33,17.49-24,16.16-32-17.33-20-27.33-20.67-40,8.67-42,29.33,0,48,19.33,62,63.56,7.18,83.9,1.62c32.77-9,53.94-58.71,39.27-99.38s-39.17-52.91-58.51-65.58-33.33-40-18.67-58,48.67-11.33,54-3.33,14,30.67,2.67,36.67S1031.33,1024,1031.33,1024Z" transform="translate(-152 -221)"/></svg>